<svg id="Capa_1" enable-background="new 0 0 512 512" height="512" viewBox="0 0 512 512" width="512" xmlns="http://www.w3.org/2000/svg"><g><g>
<path fill="#ffffff" d="m401.883 273.165h-291.095c-4.142 0-7.499 3.358-7.499 7.499s3.357 7.499 7.499 7.499h291.094c4.142 0 7.499-3.358 7.499-7.499s-3.356-7.499-7.498-7.499z"/>
<path fill="#ffffff" d="m401.883 324.939h-291.095c-4.142 0-7.499 3.358-7.499 7.499 0 4.142 3.357 7.499 7.499 7.499h291.094c4.142 0 7.499-3.358 7.499-7.499.001-4.142-3.356-7.499-7.498-7.499z"/>
<path fill="#ffffff" d="m409.382 384.212c0-4.142-3.357-7.499-7.499-7.499h-291.095c-4.142 0-7.499 3.358-7.499 7.499 0 4.142 3.357 7.499 7.499 7.499h291.094c4.143 0 7.5-3.358 7.5-7.499z"/>
<path fill="#ffffff" d="m110.788 428.486c-4.142 0-7.499 3.358-7.499 7.499s3.357 7.499 7.499 7.499h145.212c4.142 0 7.499-3.358 7.499-7.499s-3.357-7.499-7.499-7.499z"/>
<path fill="#ffffff" d="m401.883 185.506h-106.964c-4.142 0-7.499 3.358-7.499 7.499 0 4.142 3.357 7.499 7.499 7.499h106.964c4.142 0 7.499-3.358 7.499-7.499 0-4.142-3.357-7.499-7.499-7.499z"/>
<path fill="#ffffff" d="m401.883 144.843h-106.964c-4.142 0-7.499 3.358-7.499 7.499s3.357 7.499 7.499 7.499h106.964c4.142 0 7.499-3.358 7.499-7.499s-3.357-7.499-7.499-7.499z"/>
<path fill="#ffffff" d="m451.487 425.955c4.142 0 7.499-3.358 7.499-7.499v-304.027c0-10.299-4.183-19.553-10.867-26.238-79.485-79.197-77.429-78.143-82.476-81.619-6.152-4.267-13.439-6.572-21.085-6.572h-254.439c-20.46 0-37.105 16.646-37.105 37.106v437.788c0 20.46 16.645 37.106 37.105 37.106h331.762c20.46 0 37.105-16.646 37.105-37.106v-21.244c0-4.142-3.357-7.499-7.499-7.499s-7.499 3.358-7.499 7.499v21.244c0 12.19-9.917 22.107-22.107 22.107h-331.762c-12.189 0-22.107-9.917-22.107-22.107v-437.788c0-12.19 9.917-22.107 22.107-22.107h254.439c1.623 0 3.215.19 4.763.529v68.283c0 14.256 11.599 25.854 25.854 25.854h68.283c.339 1.549.529 3.14.529 4.764v304.027c.001 4.141 3.358 7.499 7.5 7.499zm-76.311-331.289c-5.986 0-10.856-4.87-10.856-10.856v-58.206l69.062 69.062z"/>
<path fill="#ffffff" d="m110.117 124.655c-4.142 0-7.499 3.358-7.499 7.499v67.129c0 13.655 11.108 24.764 24.764 24.764h88.082c13.655 0 24.764-11.109 24.764-24.764v-109.22c0-13.655-11.108-24.764-24.764-24.764h-88.082c-13.655 0-24.764 11.109-24.764 24.764v7.031c0 4.142 3.357 7.499 7.499 7.499s7.499-3.358 7.499-7.499v-7.031c0-5.384 4.381-9.765 9.765-9.765h88.082c5.384 0 9.765 4.381 9.765 9.765v87.985c-6.834-7.707-15.282-13.887-24.823-18.071 3.795-5.595 6.016-12.342 6.016-19.597 0-19.298-15.7-34.999-34.998-34.999s-34.999 15.7-34.999 34.999c0 7.256 2.22 14.002 6.016 19.597-9.541 4.185-17.989 10.364-24.823 18.071v-45.894c0-4.142-3.357-7.499-7.5-7.499zm61.306-4.275c11.027 0 19.999 8.972 19.999 20s-8.972 20-19.999 20c-11.028 0-20-8.972-20-20s8.972-20 20-20zm-16.367 50.923c4.888 2.598 10.457 4.076 16.367 4.076s11.48-1.478 16.367-4.076c16.394 4.9 29.643 16.867 36.21 32.711-1.669 2.999-4.868 5.035-8.536 5.035h-88.082c-3.668 0-6.867-2.035-8.536-5.034 6.566-15.845 19.814-27.812 36.21-32.712z"/>
</g>
</g>
</svg>